<?xml version="1.0" standalone="no"?>
<!DOCTYPE svg PUBLIC "-//W3C//DTD SVG 20010904//EN"
 "http://www.w3.org/TR/2001/REC-SVG-20010904/DTD/svg10.dtd">
<svg version="1.0" xmlns="http://www.w3.org/2000/svg"
 width="185.000000pt" height="188.000000pt" viewBox="0 0 185.000000 188.000000"
 preserveAspectRatio="xMidYMid meet">

<g transform="translate(0.000000,188.000000) scale(0.100000,-0.100000)"
fill="#000000" stroke="none">
<path d="M825 1513 c-38 -10 -65 -36 -76 -72 -6 -23 -9 -157 -7 -383 3 -314 5
-349 20 -365 26 -26 86 -22 109 6 18 22 19 46 19 353 l0 330 53 -7 c81 -10
127 -24 190 -58 73 -38 128 -100 175 -197 35 -71 37 -80 37 -175 0 -95 -2
-104 -37 -177 -25 -53 -56 -97 -97 -139 -34 -34 -62 -66 -62 -73 -3 -25 4 -42
24 -63 39 -43 75 -29 162 62 104 107 155 235 155 392 0 263 -182 491 -445 558
-56 14 -177 19 -220 8z"/>
<path d="M575 1404 c-38 -20 -114 -103 -154 -169 -132 -218 -97 -509 84 -690
108 -109 229 -163 381 -172 104 -7 153 5 184 44 19 24 20 40 20 270 l0 244
-25 24 c-29 30 -64 32 -96 6 -24 -19 -24 -22 -27 -227 -2 -119 -7 -211 -13
-214 -23 -15 -147 11 -216 45 -84 41 -138 98 -184 190 -85 173 -54 345 88 497
69 74 80 111 43 148 -24 24 -45 25 -85 4z"/>
</g>
</svg>
